<svg width="336" height="394" viewBox="0 0 336 394" fill="none" xmlns="http://www.w3.org/2000/svg">
<circle cx="167.912" cy="172.583" r="167.759" fill="#E4EBF7"/>
<path d="M70.3648 382.952C71.8655 380.379 74.3846 373.125 75.4565 369.82H87.5159C85.64 374.644 88.5878 381.076 88.5878 385.363C88.5878 388.794 87.1586 389.83 86.4439 389.919C81.7989 390.187 72.0799 390.562 70.3648 389.919C68.2209 389.115 68.4889 386.167 70.3648 382.952Z" fill="#CBD1D1"/>
<path d="M76.5286 374.644C77.3861 373.358 77.9578 370.714 78.1365 369.553H84.5681C84.3001 370.178 83.7642 372.072 83.7642 374.644C83.7642 377.86 81.3523 378.396 78.9404 378.396C76.5286 378.396 75.4566 376.252 76.5286 374.644Z" fill="#A4AABA"/>
<path d="M88.32 388.311C79.53 391.955 71.6155 389.829 68.757 388.311C65.9699 391.526 73.4914 392.688 77.6005 392.866C88.9631 392.009 89.4812 389.472 88.32 388.311Z" fill="#2B0849"/>
<path d="M136.021 392.331V388.043L171.128 389.919L170.592 392.331C162.016 394.903 155.763 393.939 153.709 393.135C151.922 391.973 147.974 390.08 146.473 391.795C144.972 393.51 138.88 392.867 136.021 392.331Z" fill="#2B0849"/>
<path d="M135.753 388.312C135.968 382.952 136.915 374.466 137.361 370.893H149.689C148.349 380.272 156.924 382.952 163.892 384.024C169.466 384.881 170.86 388.133 170.86 389.652C156.388 394.207 149.421 388.312 144.597 389.652C140.738 390.724 137.093 389.205 135.753 388.312Z" fill="#CBD1D1"/>
<path d="M155.121 381.344C145.902 381.987 144.491 374.644 144.938 370.893H149.493C148.85 376.681 152.977 380.272 155.121 381.344Z" fill="#A4AABA"/>
<path d="M107.347 222.696L109.759 203.133C117.691 197.773 143.614 199.649 155.584 201.257L157.192 203.133C159.979 224.786 156.745 270.219 154.78 290.228L153.172 371.16H135.217C135.396 350.168 135.86 307.808 136.289 306.307C136.825 304.431 137.093 302.556 136.289 302.02C135.485 301.484 136.289 300.412 136.289 299.608C136.289 298.804 137.361 297.732 136.289 297.464C135.432 297.249 135.932 295.231 136.289 294.248L135.217 260.75V233.147L130.662 233.683L117.53 280.581L108.955 312.203L94.2155 369.82H75.1885C77.3324 359.636 81.7809 338.305 82.4241 334.446C83.228 329.622 91.2676 292.64 93.1435 291.032C95.0194 289.424 92.6075 285.672 94.2155 283.797C95.5018 282.296 96.538 279.419 96.8953 278.169L102.791 246.547L107.347 222.696Z" fill="#7BB2F9"/>
<path d="M137.361 232.611L138.433 293.176C138.88 293.533 139.505 294.57 138.433 295.856C137.093 297.464 137.897 297.464 138.969 297.464C140.041 297.464 140.041 297.732 139.237 299.34C138.433 300.948 137.361 300.948 138.969 302.288C140.577 303.628 139.773 304.431 138.969 305.503C138.165 306.575 137.629 343.289 137.629 349.721" stroke="#648BD8" stroke-width="2"/>
<path d="M137.897 358.564V352.4" stroke="#648BD8" stroke-width="2"/>
<path d="M137.897 369.553V360.441" stroke="#648BD8" stroke-width="2"/>
<path d="M135.753 367.141H152.905" stroke="#648BD8" stroke-width="2"/>
<path d="M117.262 202.061C117.709 205.991 117.155 213.852 111.367 213.852" stroke="#648BD8" stroke-width="2"/>
<path d="M126.91 234.22C129.411 233.684 135.539 232.505 140.041 232.076" stroke="#648BD8" stroke-width="2"/>
<path d="M135.485 202.33C135.307 211.352 134.735 230.093 133.877 232.88" stroke="#648BD8" stroke-width="2"/>
<path d="M140.845 202.33L140.041 217.337L134.949 222.697" stroke="#648BD8" stroke-width="2"/>
<path d="M112.439 202.33L111.099 216.533C110.563 216.98 109.652 218.356 110.295 220.285C108.151 233.238 103.863 259.465 103.863 260.751" stroke="#648BD8" stroke-width="2"/>
<path d="M103.327 263.162L102.255 270.13" stroke="#648BD8" stroke-width="2"/>
<path d="M101.719 273.881C101.451 276.025 100.647 280.581 99.5752 281.652C98.2352 282.992 99.5752 288.888 97.6993 291.032C95.8234 293.176 87.2478 321.314 85.1039 333.642C83.3888 343.504 79.9229 360.262 78.4043 367.408" stroke="#648BD8" stroke-width="2"/>
<path d="M77.0645 365.801H95.5555" stroke="#648BD8" stroke-width="2"/>
<path d="M103.595 295.321C103.863 296.035 106.221 295.696 113.51 288.621" stroke="#648BD8" stroke-width="2"/>
<path d="M101.719 299.341C102.345 299.609 105.096 299.073 111.099 294.785" stroke="#648BD8" stroke-width="2"/>
<path d="M145.133 296.123C145.401 296.838 147.759 296.499 155.049 289.424" stroke="#648BD8" stroke-width="2"/>
<path d="M143.257 300.144C143.882 300.412 146.633 299.876 152.636 295.588" stroke="#648BD8" stroke-width="2"/>
<path d="M75.4565 133.725L61.5212 125.15L81.8882 110.143L87.2479 114.43C85.3184 122.792 78.583 130.777 75.4565 133.725Z" fill="#FFB594"/>
<path d="M172.467 114.161C174.397 122.523 178.988 130.509 182.115 133.456L191.762 127.561L196.854 121.397L174.343 112.018L172.467 114.161Z" fill="#FFB594"/>
<path d="M144.865 81.7349C142.721 80.2342 138.612 81.1096 136.825 81.7349L144.061 96.2061C145.133 97.7068 150.939 97.7247 153.709 97.546C154.423 97.546 158.371 99.9043 168.448 109.337C178.524 118.77 185.867 122.022 188.279 122.469C192.566 123.094 200.713 122.254 198.998 113.893C196.854 103.442 165.768 92.7223 160.944 92.1863C156.12 91.6503 147.545 83.6108 144.865 81.7349Z" fill="#FFC6A0"/>
<path d="M116.726 80.9316L125.302 82.0036L111.902 94.8669H105.203C101.451 98.1721 92.3931 106.551 86.1758 113.626C78.4042 122.469 65.273 133.725 59.1093 122.201C52.9456 110.678 85.6399 94.3309 90.9996 93.259C95.2874 92.4014 109.937 84.6834 116.726 80.9316Z" fill="#FFC6A0"/>
<path d="M74.9207 133.457C80.2804 129.384 85.1934 118.897 86.98 114.162L90.1958 114.966C92.1253 114.966 93.3223 115.859 93.6797 116.306L111.367 120.058L148.617 121.398C152.047 119.897 154.691 119.879 155.584 120.058L172.199 114.162C179.703 119.736 181.936 129.348 182.115 133.457C178.899 135.601 168.448 141.139 163.624 143.641L158.532 186.25C161.534 189.68 159.068 195.362 157.46 197.774C141.167 193.486 118.87 195.987 109.759 197.774C105.685 194.987 107.168 190.181 108.419 188.126L97.6994 145.784L74.9207 133.457Z" fill="white"/>
<path d="M163.356 141.229C163.177 144.802 162.498 153.609 161.212 160.256" stroke="#E4EBF7" stroke-width="2" stroke-linecap="round"/>
<path d="M117.53 155.164L139.505 151.145" stroke="#E4EBF7" stroke-width="2" stroke-linecap="round"/>
<path d="M134.413 155.165L148.081 152.217" stroke="#E4EBF7" stroke-width="2" stroke-linecap="round"/>
<path d="M171.932 117.646C173.45 119.88 176.755 126.222 177.827 133.726" stroke="#E4EBF7" stroke-width="2" stroke-linecap="round"/>
<path d="M104.935 126.758C105.382 130.152 104.667 138.442 98.2354 144.445" stroke="#E4EBF7" stroke-width="2" stroke-linecap="round"/>
<path d="M143.257 125.417C139.237 130.508 127.949 132.195 117.53 126.542" stroke="#E4EBF7" stroke-width="2" stroke-linecap="round"/>
<path d="M89.5077 115.77C88.8557 120.325 86.1759 128.633 80.0122 135.6" stroke="#E4EBF7" stroke-width="2" stroke-linecap="round"/>
<path d="M118.602 112.555V122.47C128.035 129.116 137.54 125.775 141.113 123.274V112.555H118.602Z" fill="#FFB594"/>
<path d="M140.041 120.057C129.322 122.844 122.533 118.36 120.478 115.769C121.979 113.84 134.145 116.573 140.041 118.181V120.057Z" fill="#DB836E"/>
<path d="M145.669 85.4872C145.883 89.3462 144.865 96.9213 144.329 100.226L119.138 117.378C118.066 115.77 115.011 111.053 111.367 105.05C107.722 99.0473 111.456 92.5442 113.778 90.043C116.137 79.7523 135.843 80.7528 145.401 82.5394L145.669 85.4872Z" fill="#5C2552"/>
<path d="M118.066 111.213L120.21 113.625C128.571 122.201 137.629 120.235 141.113 118.181C145.401 115.394 145.044 105.586 144.329 101.03L143.525 91.9182C143.525 88.2736 137.808 87.7198 134.949 87.8985C123.801 88.3272 121.55 90.5783 121.818 91.6503V97.5459C119.674 98.6179 119.317 102.816 119.406 104.782C118.602 102.906 113.779 98.3499 113.511 105.05C113.296 110.409 116.458 111.392 118.066 111.213Z" fill="#FFC6A0"/>
<path d="M118.255 105.472L116.345 103.37C116.105 103.107 115.705 103.069 115.42 103.283C115.108 103.516 115.052 103.962 115.295 104.266L116.994 106.39C115.428 107.956 116.464 109.04 117.579 109.584C117.944 109.762 118.334 109.469 118.334 109.063C118.334 108.759 118.099 108.527 117.822 108.403C117.398 108.213 117.57 107.908 117.906 107.632C118.296 107.311 118.602 106.874 118.602 106.369C118.602 106.038 118.479 105.718 118.255 105.472Z" fill="#DB836E"/>
<path d="M137.361 111.482H132.538C132.538 112.018 133.02 113.037 134.949 112.822C136.879 112.608 137.361 111.84 137.361 111.482Z" fill="#DB836E"/>
<path d="M135.217 105.051C131.787 105.051 130.93 107.016 130.93 107.999C130.93 110.143 136.021 110.41 137.629 108.535C139.237 106.659 139.505 105.051 135.217 105.051Z" fill="#DB836E"/>
<path d="M137.328 95.7996L137.856 95.4032L137.32 93.5273L135.499 95.8041C135.297 96.057 135.229 96.3922 135.318 96.7035L136.537 100.967C136.677 101.46 136.422 101.98 135.946 102.17L135.445 102.371C134.595 102.735 134.564 103.116 134.827 103.427C135.252 103.931 136.035 103.753 136.575 103.375L137.816 102.506C138.162 102.264 138.318 101.831 138.207 101.424L136.963 96.8627C136.855 96.467 137 96.0456 137.328 95.7996Z" fill="#DB836E"/>
<path d="M142.721 94.5997C140.363 94.8141 138.344 93.7957 137.629 93.2598C134.681 94.5997 140.845 97.0116 142.721 96.7436C144.251 96.5249 143.257 94.957 142.721 94.5997Z" fill="#5C2552"/>
<path fill-rule="evenodd" clip-rule="evenodd" d="M234.372 151.544C234.304 151.526 234.236 151.507 234.169 151.486C233.126 151.162 232.254 150.45 231.721 149.52C231.362 148.893 231.156 148.166 231.156 147.391C231.156 145.023 233.076 143.104 235.444 143.104C235.483 143.104 235.522 143.104 235.561 143.105C237.875 143.167 239.732 145.063 239.732 147.391C239.732 148.279 239.462 149.104 238.999 149.789C238.525 150.491 237.848 151.045 237.052 151.367V169.462C243.694 170.256 248.843 175.909 248.843 182.765C248.843 186.691 247.155 190.223 244.465 192.673L244.556 192.949L258.338 200.606C259.947 199.177 262.065 198.309 264.386 198.309C269.418 198.309 273.498 202.388 273.498 207.42C273.498 212.452 269.418 216.532 264.386 216.532C262.346 216.532 260.462 215.861 258.943 214.728L247.506 224.64C248.354 226.025 248.843 227.653 248.843 229.395C248.843 234.427 244.764 238.506 239.732 238.506C238.003 238.506 236.386 238.025 235.009 237.189L220.973 251.37H211.325L206.001 258.469C206.32 259.069 206.502 259.754 206.502 260.481C206.502 262.849 204.582 264.769 202.214 264.769C199.846 264.769 197.926 262.849 197.926 260.481C197.926 258.113 199.846 256.193 202.214 256.193C202.862 256.193 203.476 256.337 204.027 256.595L209.985 248.154H220.973L233.092 235.635C231.559 234.005 230.62 231.809 230.62 229.395C230.62 224.363 234.7 220.283 239.732 220.283C242.06 220.283 244.185 221.157 245.795 222.594L257.154 212.963C255.976 211.428 255.275 209.506 255.275 207.42C255.275 205.672 255.767 204.039 256.621 202.651L256.615 202.596L242.412 194.557L242.317 194.27C240.308 195.473 237.957 196.165 235.444 196.165C228.044 196.165 222.045 190.166 222.045 182.765C222.045 175.726 227.473 169.954 234.372 169.408V151.544ZM235.444 148.999C235.888 148.999 236.29 148.819 236.581 148.528ZM236.581 148.528C236.872 148.237 237.052 147.835 237.052 147.391ZM236.867 146.642C236.622 146.177 236.156 145.847 235.608 145.792C235.554 145.786 235.499 145.783 235.444 145.783C234.889 145.783 234.4 146.065 234.111 146.492C233.937 146.749 233.836 147.058 233.836 147.391C233.836 147.734 233.943 148.052 234.126 148.313C234.417 148.728 234.899 148.999 235.444 148.999M237.052 147.391C237.052 147.121 236.985 146.866 236.867 146.642ZM202.214 262.089C203.102 262.089 203.822 261.369 203.822 260.481C203.822 259.593 203.102 258.873 202.214 258.873C201.326 258.873 200.606 259.593 200.606 260.481C200.606 261.369 201.326 262.089 202.214 262.089Z" fill="white"/>
<path d="M131.008 94.0081C128.795 94.185 126.417 95.1125 125.302 95.6702C124.498 96.038 125.302 98.886 126.642 97.5461C127.982 96.2061 129.322 96.2061 131.734 96.2061C132.423 96.2061 132.814 96.0236 133.011 95.7564C133.691 94.8335 132.15 93.9168 131.008 94.0081Z" fill="#5C2552"/>
<circle cx="281.538" cy="39.1259" r="39.1259" fill="#A26EF4"/>
<path fill-rule="evenodd" clip-rule="evenodd" d="M274.57 35.9107V31.4889C274.57 28.1588 277.27 25.4592 280.6 25.4592C283.93 25.4592 286.629 28.1588 286.629 31.4889V35.9107C286.629 36.002 286.637 36.0915 286.652 36.1787H274.548C274.562 36.0915 274.57 36.002 274.57 35.9107ZM271.086 36.1787V30.819C271.086 25.6388 275.285 21.4395 280.466 21.4395C285.646 21.4395 289.845 25.6388 289.845 30.819V36.1787H295.473C296.953 36.1787 298.153 37.3785 298.153 38.8585V54.4017C298.153 55.8817 296.953 57.0816 295.473 57.0816H267.066C265.586 57.0816 264.386 55.8817 264.386 54.4017V38.8585C264.386 37.3785 265.586 36.1787 267.066 36.1787H271.086Z" fill="white"/>
<path d="M174.477 27.334H134.547C131.069 27.334 128.25 30.1535 128.25 33.6316C128.25 37.1098 131.069 39.9293 134.547 39.9293H153.172C156.429 39.9293 159.068 42.5689 159.068 45.825C159.068 49.0811 156.429 51.7207 153.172 51.7207H149.421C146.017 51.7207 143.257 54.4803 143.257 57.8844C143.257 61.2885 146.017 64.048 149.421 64.048H189.35C192.755 64.048 195.514 61.2885 195.514 57.8844C195.514 54.4803 192.755 51.7207 189.35 51.7207H173.807C170.551 51.7207 167.912 49.0811 167.912 45.825C167.912 42.5689 170.551 39.9293 173.807 39.9293H174.477C177.955 39.9293 180.775 37.1098 180.775 33.6316C180.775 30.1535 177.955 27.334 174.477 27.334Z" fill="white"/>
<path d="M212.397 85.2196C212.397 81.3715 215.517 78.252 219.365 78.252H224.189C228.037 78.252 231.156 81.3715 231.156 85.2196C231.156 89.0677 228.037 92.1872 224.189 92.1872H219.365C215.517 92.1872 212.397 89.0677 212.397 85.2196Z" fill="white"/>
<path fill-rule="evenodd" clip-rule="evenodd" d="M54.546 182.414C55.405 180.848 55.8935 179.05 55.8935 177.138C55.8935 171.07 50.9743 166.15 44.9061 166.15C38.8379 166.15 33.9187 171.07 33.9187 177.138C33.9187 183.206 38.8379 188.125 44.9061 188.125C47.9546 188.125 50.7131 186.884 52.7036 184.879C55.2281 186.326 60.6565 189.469 64.2494 191.551C64.0436 192.249 63.9332 192.988 63.9332 193.753C63.9332 195.538 64.5349 197.182 65.5465 198.494L53.0445 209.178C51.7042 208.079 49.9901 207.42 48.1221 207.42C43.83 207.42 40.3505 210.9 40.3505 215.192C40.3505 219.484 43.83 222.963 48.1221 222.963C52.4142 222.963 55.8937 219.484 55.8937 215.192C55.8937 213.817 55.5369 212.526 54.9109 211.406L67.8281 200.49C68.9692 201.148 70.293 201.525 71.7048 201.525C75.9969 201.525 79.4764 198.045 79.4764 193.753C79.4764 189.461 75.9969 185.981 71.7048 185.981C69.2371 185.981 67.038 187.132 65.6144 188.925L54.546 182.414Z" fill="white"/>
<rect x="227.405" y="270.129" width="17.6871" height="70.2123" rx="8.84353" fill="#92C110"/>
<rect x="216.685" y="226.717" width="17.6871" height="113.626" rx="8.84353" fill="#5BA02E"/>
<rect x="208.646" y="323.727" width="45.0216" height="70.2123" rx="10" fill="#F2D7AD"/>
<path fill-rule="evenodd" clip-rule="evenodd" d="M264.387 126.489C264.387 128.675 262.75 130.48 260.635 130.744V159.183L280.198 169.099L295.526 159.321C295.491 159.101 295.473 158.876 295.473 158.647C295.473 156.279 297.393 154.359 299.761 154.359C302.129 154.359 304.049 156.279 304.049 158.647C304.049 161.015 302.129 162.935 299.761 162.935C298.724 162.935 297.773 162.567 297.032 161.955L280.198 172.315L257.955 161.059V130.203C256.673 129.462 255.811 128.076 255.811 126.489C255.811 124.121 257.731 122.201 260.099 122.201C262.467 122.201 264.387 124.121 264.387 126.489ZM260.099 128.097C260.987 128.097 261.707 127.377 261.707 126.489C261.707 125.601 260.987 124.881 260.099 124.881C259.211 124.881 258.491 125.601 258.491 126.489C258.491 127.377 259.211 128.097 260.099 128.097ZM301.369 158.647C301.369 159.535 300.649 160.255 299.761 160.255C298.873 160.255 298.153 159.535 298.153 158.647C298.153 157.759 298.873 157.039 299.761 157.039C300.649 157.039 301.369 157.759 301.369 158.647Z" fill="white"/>
<path fill-rule="evenodd" clip-rule="evenodd" d="M292.793 205.278C292.793 207.204 291.523 208.833 289.776 209.374L287.701 235.828L273.426 243.615C273.473 243.871 273.498 244.134 273.498 244.404C273.498 246.772 271.578 248.692 269.21 248.692C266.842 248.692 264.922 246.772 264.922 244.404C264.922 242.036 266.842 240.116 269.21 240.116C270.219 240.116 271.146 240.464 271.878 241.047L284.753 233.952L286.835 209.229C285.297 208.577 284.217 207.054 284.217 205.278C284.217 202.91 286.137 200.99 288.505 200.99C290.873 200.99 292.793 202.91 292.793 205.278ZM288.505 206.886C289.393 206.886 290.113 206.166 290.113 205.278C290.113 204.39 289.393 203.67 288.505 203.67C287.617 203.67 286.897 204.39 286.897 205.278C286.897 206.166 287.617 206.886 288.505 206.886ZM270.818 244.404C270.818 245.292 270.098 246.012 269.21 246.012C268.322 246.012 267.602 245.292 267.602 244.404C267.602 243.516 268.322 242.796 269.21 242.796C270.098 242.796 270.818 243.516 270.818 244.404Z" fill="white"/>
<ellipse cx="129.59" cy="99.4228" rx="1.33993" ry="1.8759" fill="#5C2552"/>
<ellipse cx="140.309" cy="99.4228" rx="1.33993" ry="1.8759" fill="#5C2552"/>
<path d="M68.2209 127.293C71.2581 126.936 79.0476 123.81 85.908 114.162" stroke="#DB836E"/>
<path d="M190.958 122.738C187.921 122.38 180.239 121.13 174.879 114.162" stroke="#DB836E"/>
<path d="M109.491 203.293V197.666C130.286 193.592 149.957 195.254 157.192 196.594V202.757C134.038 199.542 115.744 201.775 109.491 203.293Z" fill="#192064"/>
<path fill-rule="evenodd" clip-rule="evenodd" d="M134.466 202.597H131.466V199.597V193.754C136.397 193.11 142.096 193.486 144.329 193.754V199.597V202.597H141.329H134.466ZM141.329 199.597V196.509C139.409 196.396 136.929 196.34 134.466 196.487V199.597H141.329Z" fill="white"/>
</svg>
