<svg width="20" height="18" viewBox="0 0 20 18" fill="none" xmlns="http://www.w3.org/2000/svg">
<ellipse cx="9.70606" cy="4.89747" rx="2.10255" ry="2.10255" fill="#45A7DF"/>
<ellipse cx="18.1159" cy="6.52532" rx="1.15301" ry="1.15301" fill="#45A7DF"/>
<ellipse cx="1.29559" cy="6.52532" rx="1.15301" ry="1.15301" fill="#45A7DF"/>
<ellipse cx="5.09344" cy="16.2919" rx="1.15301" ry="1.15301" fill="#45A7DF"/>
<ellipse cx="14.318" cy="16.2919" rx="1.15301" ry="1.15301" fill="#45A7DF"/>
<path fill-rule="evenodd" clip-rule="evenodd" d="M7.84174 0.142286C6.00502 0.528219 4.51001 1.35751 3.18196 2.72701C2.55541 3.37318 1.8198 4.35911 1.8198 4.55275C1.8198 4.64084 2.21585 4.9252 2.33326 4.92143C2.36595 4.92035 2.49461 4.75111 2.61924 4.54527C3.13377 3.69535 4.13466 2.66824 5.05501 2.04573C5.887 1.48294 7.1949 0.965242 8.24877 0.781442C9.01497 0.647854 10.3289 0.647854 11.0951 0.781442C12.3177 0.994628 13.6315 1.55944 14.6201 2.29673C15.3058 2.80823 16.202 3.75439 16.6452 4.4348C16.8443 4.74053 17.0315 4.99072 17.0612 4.99072C17.1887 4.99072 17.5914 4.75643 17.5914 4.68229C17.5914 4.49667 16.7393 3.32344 16.1919 2.75559C14.8536 1.36708 13.3178 0.516896 11.4662 0.13959C10.5475 -0.0476479 8.73937 -0.0462998 7.84174 0.142286ZM8.80199 2.45775C8.10554 2.75081 7.53001 3.34568 7.29688 4.01341C7.12649 4.50146 7.14657 5.31774 7.34129 5.81873C7.53534 6.31783 8.11073 6.94795 8.58388 7.17947C9.89583 7.82132 11.4636 7.2807 12.1009 5.96654C12.276 5.60561 12.2966 5.49339 12.2984 4.88962C12.3003 4.29589 12.2789 4.16945 12.1188 3.82786C11.8791 3.3165 11.3524 2.76894 10.8694 2.52906C10.5408 2.36595 10.3817 2.33259 9.84042 2.31318C9.27905 2.29302 9.15105 2.31089 8.80199 2.45775ZM10.4176 3.08167C10.8923 3.24343 11.4136 3.78034 11.5535 4.25161C11.7733 4.99152 11.6112 5.69033 11.1048 6.18606C10.7095 6.573 10.2784 6.75155 9.73932 6.75155C8.31833 6.75155 7.412 5.26888 8.05924 4.0033C8.27094 3.58933 8.73209 3.17664 9.12409 3.0504C9.4555 2.94364 10.055 2.95813 10.4176 3.08167ZM0.870406 5.25735C0.324734 5.42268 0 5.8988 0 6.53337C0 7.0165 0.0984043 7.24465 0.433787 7.53905C0.832999 7.8896 1.43387 7.96805 1.87642 7.7275C2.01675 7.65127 2.13591 7.68436 2.96015 8.02844C4.90114 8.83879 6.79744 9.40758 8.21338 9.60412C8.59743 9.65744 8.92627 9.71574 8.94414 9.7336C8.962 9.75146 8.17766 10.9587 7.2011 12.4162L5.42558 15.0664L5.11648 15.0747C4.65257 15.0872 4.34866 15.2141 4.0858 15.5051C3.35336 16.3158 3.83878 17.6102 4.91401 17.7135C5.93121 17.8112 6.68212 16.8428 6.29935 15.9267C6.24233 15.7902 6.15148 15.6297 6.09742 15.57C6.0096 15.4729 6.18936 15.1787 7.78694 12.8041C8.77024 11.3426 9.59805 10.1387 9.62656 10.1289C9.655 10.1191 10.4894 11.3235 11.4808 12.8054L13.2834 15.4997L13.1386 15.7833C12.9433 16.1663 12.9753 16.7994 13.2071 17.1377C13.4935 17.5558 13.7746 17.6956 14.3282 17.6956C14.7723 17.6956 14.8385 17.6771 15.0745 17.487C15.4928 17.1502 15.6463 16.8269 15.6201 16.3387C15.5777 15.5531 15.057 15.0745 14.2551 15.084L13.8507 15.0889L12.0794 12.4295C11.1051 10.9668 10.3259 9.74108 10.3478 9.70569C10.3696 9.67031 10.4844 9.64133 10.6027 9.64133C11.484 9.64126 14.19 8.99341 16.1423 8.31516C17.2716 7.92283 17.4867 7.86897 17.9621 7.85967C18.5284 7.84862 18.7147 7.78466 19.0297 7.49315C19.3193 7.2251 19.4112 6.99385 19.4112 6.53337C19.4112 6.20877 19.3735 6.05025 19.2434 5.82816C18.9933 5.40145 18.6684 5.22763 18.1199 5.22709C17.7293 5.22668 17.6338 5.2529 17.3845 5.42882C16.8814 5.78381 16.6612 6.4568 16.8782 6.97612C16.9656 7.18527 16.9705 7.2501 16.9021 7.29452C16.7402 7.3998 14.3478 8.16014 13.4408 8.39463C11.5514 8.88314 10.0111 9.07207 8.82699 8.96065C7.30685 8.81763 5.42524 8.27998 3.17151 7.34467L2.50951 7.06994L2.57792 6.84712C2.6768 6.52495 2.58426 6.05382 2.36177 5.74661C2.03562 5.29644 1.41419 5.09256 0.870406 5.25735ZM1.734 6.10464C1.94423 6.31486 1.96701 6.37087 1.93155 6.58965C1.87757 6.92213 1.63189 7.15857 1.33142 7.16707C0.715655 7.18452 0.390584 6.48491 0.829157 6.08617C1.15119 5.79338 1.42841 5.79905 1.734 6.10464ZM18.653 6.1043C18.8316 6.30987 18.856 6.7072 18.7033 6.92517C18.5388 7.16013 18.1813 7.24525 17.9067 7.11497C17.4047 6.87677 17.3981 6.22737 17.8947 5.94173C18.1001 5.82365 18.4798 5.90507 18.653 6.1043ZM0.631337 8.46081C0.562657 8.6399 0.66005 10.1176 0.779146 10.703C1.11749 12.3661 1.88545 13.8866 3.03442 15.1681L3.36677 15.5388L3.61481 15.2913L3.86284 15.0438L3.43606 14.5499C2.06945 12.9684 1.348 11.0946 1.348 9.127C1.348 8.48858 1.33708 8.42812 1.22163 8.42812C1.15214 8.42812 1.00096 8.40925 0.885638 8.3862C0.724012 8.35385 0.665846 8.37097 0.631337 8.46081ZM17.9956 9.05158C17.9948 11.0957 17.2763 12.9642 15.8721 14.5743L15.5045 14.9958L15.7187 15.2167C15.8365 15.3383 15.9649 15.4359 16.0039 15.4335C16.043 15.4312 16.2569 15.2184 16.4793 14.9606C17.5455 13.7249 18.263 12.2483 18.5588 10.681C18.6818 10.0292 18.7709 8.77355 18.7111 8.53516C18.6713 8.3767 18.6365 8.36072 18.3316 8.36072H17.9958L17.9956 9.05158ZM5.47882 15.9104C5.95002 16.281 5.64901 17.0553 5.03378 17.0553C4.82949 17.0553 4.52606 16.8214 4.44133 16.5987C4.3585 16.3807 4.47524 16.013 4.67076 15.876C4.8766 15.7319 5.27339 15.7487 5.47882 15.9104ZM14.7883 15.9821C15.0325 16.2722 15.024 16.6001 14.7658 16.8583C14.62 17.0042 14.5049 17.0553 14.3225 17.0553C13.7619 17.0553 13.4649 16.3474 13.8599 15.9524C14.1256 15.6868 14.5513 15.7004 14.7883 15.9821ZM12.138 16.9627C11.2506 17.2536 10.5253 17.3435 9.36862 17.3059C8.51534 17.2782 8.20044 17.2384 7.64992 17.0888C6.58897 16.8006 6.64451 16.7996 6.54213 17.1098C6.4934 17.2573 6.47379 17.4106 6.49839 17.4505C6.5544 17.5412 7.32545 17.7734 7.99656 17.9018C8.69543 18.0355 10.6629 18.0319 11.3817 17.8956C11.8357 17.8094 12.9276 17.4954 12.99 17.4331C13.0388 17.3843 12.7827 16.7867 12.7154 16.7924C12.6726 16.7961 12.4128 16.8727 12.138 16.9627Z" fill="black"/>
</svg>
