<svg width="48" height="19" viewBox="0 0 48 19" fill="none" xmlns="http://www.w3.org/2000/svg">
<path d="M10.0576 0C13.4076 0.000174651 16.3247 1.84888 17.8477 4.58105C17.9165 4.57409 17.9869 4.57129 18.0576 4.57129C19.1935 4.57155 20.1143 5.49294 20.1143 6.62891C20.1141 7.44056 19.6428 8.14003 18.96 8.47461C18.967 8.62022 18.9717 8.7667 18.9717 8.91406C18.9717 11.3969 17.9551 13.6415 16.3174 15.2578C16.4066 15.4882 16.457 15.7381 16.457 16C16.457 17.136 15.5363 18.0574 14.4004 18.0576C13.7921 18.0576 13.2467 17.7917 12.8701 17.3721C11.9857 17.6661 11.0408 17.8281 10.0576 17.8281C8.94177 17.8281 7.87411 17.6215 6.88965 17.2471C6.51372 17.7384 5.9233 18.0576 5.25684 18.0576C4.12085 18.0575 3.2002 17.136 3.2002 16C3.2002 15.6137 3.30795 15.2531 3.49316 14.9443C2.03429 13.3571 1.14258 11.2398 1.14258 8.91406C1.14258 8.76672 1.14625 8.6202 1.15332 8.47461C0.470913 8.13987 0.000129043 7.44024 0 6.62891C0 5.49278 0.921489 4.57129 2.05762 4.57129C2.1278 4.5713 2.19725 4.57418 2.26562 4.58105C3.78858 1.84851 6.70728 0 10.0576 0ZM10.2461 10.79C10.1553 10.6574 9.95894 10.6574 9.86816 10.79L7.08594 14.8574L6.94238 14.8213C7.17635 15.1552 7.31445 15.5613 7.31445 16C7.31445 16.0613 7.30993 16.1217 7.30469 16.1816C8.16051 16.5059 9.08814 16.6855 10.0576 16.6855C10.8638 16.6855 11.6409 16.5619 12.3721 16.334C12.3543 16.2252 12.3428 16.1138 12.3428 16C12.3428 15.4715 12.5425 14.9894 12.8701 14.625L10.2461 10.79ZM48 14.8574H22.4004V3.42871H48V14.8574ZM16.9062 8.33301C15.8597 8.79438 13.7477 9.60927 11.8086 9.98828C11.6384 10.0218 11.5608 10.224 11.668 10.3604L14.498 13.9453C14.9156 13.9649 15.3001 14.1095 15.6162 14.3418C16.9841 12.941 17.8281 11.0266 17.8281 8.91406C17.8281 8.83267 17.8238 8.75169 17.8213 8.6709C17.4849 8.63245 17.1733 8.51369 16.9062 8.33301ZM3.2793 8.28223C2.99685 8.4913 2.65912 8.62802 2.29199 8.66992C2.28949 8.75102 2.28614 8.83236 2.28613 8.91406C2.28613 10.9387 3.06062 12.782 4.3291 14.165C4.60798 14.0237 4.92282 13.9424 5.25684 13.9424C5.36503 13.9424 5.47151 13.9517 5.5752 13.9678L8.21289 10.3887C8.31894 10.2442 8.22556 10.0367 8.04785 10.0127C6.91656 9.86024 4.8799 9.37227 3.2793 8.28223ZM10.0576 1.14258C7.18603 1.14258 4.67939 2.70129 3.33398 5.01758C3.80879 5.39441 4.11426 5.97564 4.11426 6.62891C4.11425 6.68051 4.11117 6.73158 4.10742 6.78223C6.00034 8.04003 10.6524 9.57172 16.0039 6.74902C16.0016 6.70939 16 6.66911 16 6.62891C16 5.97592 16.3048 5.39442 16.7793 5.01758C15.4339 2.70166 12.9288 1.14275 10.0576 1.14258ZM9.82812 2.05762C11.3429 2.05762 12.5712 3.28506 12.5713 4.7998C12.5713 6.31464 11.343 7.54297 9.82812 7.54297C8.31349 7.54273 7.08594 6.31449 7.08594 4.7998C7.08604 3.2852 8.31356 2.05786 9.82812 2.05762Z" fill="#086397"/>
<path d="M32.9072 13.0569H31.1924L30.6514 11.4124H27.8477L27.3086 13.0569H25.5996L28.498 5.25708H29.9922L32.9072 13.0569ZM38.8584 6.51587H35.2373V8.43384H38.3232V9.65552H35.2373V11.804H38.8643V13.0569H33.6299V5.25708H38.8584V6.51587ZM45.0303 5.25708V6.51587H41.4082V8.43384H44.4941V9.65552H41.4082V11.804H45.0352V13.0569H39.8018V5.25708H45.0303ZM28.2607 10.1536H30.2373L29.2471 7.14478L28.2607 10.1536Z" fill="white"/>
</svg>
