<svg width="49" height="21" viewBox="0 0 49 21" fill="none" xmlns="http://www.w3.org/2000/svg">
<path d="M8.08008 11.9893V20.8506L1.56348 18.7656V16.9414C2.74697 17.2585 3.90914 16.3668 3.90918 15.1416V14.1191C3.90905 12.9986 3.20345 11.999 2.14746 11.624L1.56348 11.417V9.12207L8.08008 11.9893ZM15.3779 11.417L14.7939 11.624C13.738 11.999 13.0324 12.9986 13.0322 14.1191V15.1416C13.0323 16.3668 14.1944 17.2585 15.3779 16.9414V18.7656L8.86133 20.8506V11.9893L15.3779 9.12207V11.417ZM49 17.2021H20.3301V3.64941H49V17.2021ZM1.75781 12.9443C2.25457 12.9503 2.60645 13.3899 2.60645 13.8867V14.5957C2.60645 15.1715 2.13678 15.6651 1.56543 15.5938C0.754937 15.4925 0 15.1608 0 14.0742C0.000135869 13.1635 0.921591 12.9346 1.75781 12.9443ZM15.1836 12.9443C16.0198 12.9346 16.9413 13.1635 16.9414 14.0742C16.9414 15.1608 16.1865 15.4925 15.376 15.5938C14.8047 15.6651 14.335 15.1715 14.335 14.5957V13.8867C14.335 13.3899 14.6869 12.9504 15.1836 12.9443ZM3.90918 9.12207C3.70086 7.03743 5.38606 7.21115 6.25488 7.55859C8.86119 9.12238 10.6859 7.55868 11.7285 7.55859C12.5624 7.55859 13.1181 8.60068 13.292 9.12207C11.6239 9.33071 9.29544 10.4251 8.33984 10.9463C6.88029 9.90397 4.77787 9.29581 3.90918 9.12207ZM8.86133 0C10.8766 0 12.5107 1.63416 12.5107 3.64941C12.5105 5.66445 10.8764 7.29785 8.86133 7.29785C6.84641 7.29765 5.21315 5.66432 5.21289 3.64941C5.21289 1.63429 6.84625 0.000202088 8.86133 0Z" fill="#D06D12"/>
<path d="M27.2979 6.25537C27.9652 6.25537 28.5375 6.37668 29.0137 6.61865C29.4936 6.85671 29.8606 7.18649 30.1143 7.60791C30.3678 8.02925 30.4951 8.51101 30.4951 9.05322C30.4951 9.60347 30.3679 10.08 30.1143 10.4819C29.8606 10.8839 29.4936 11.194 29.0137 11.4126C28.5375 11.6312 27.9652 11.7407 27.2979 11.7407H25.7354V14.7788H23.9785V6.25537H27.2979ZM38 14.7788H36.126L35.5352 12.9819H32.4717L31.8818 14.7788H30.0146L33.1816 6.25537H34.8154L38 14.7788ZM42.1094 6.25537C42.7767 6.25538 43.3481 6.37673 43.8242 6.61865C44.3043 6.85672 44.6711 7.18641 44.9248 7.60791C45.1784 8.0293 45.3056 8.51091 45.3057 9.05322C45.3057 9.60352 45.1785 10.0799 44.9248 10.4819C44.6711 10.8839 44.3042 11.1941 43.8242 11.4126C43.3481 11.6311 42.7766 11.7407 42.1094 11.7407H40.5459V14.7788H38.79V6.25537H42.1094ZM32.9229 11.606H35.082L34.001 8.31885L32.9229 11.606ZM40.5459 10.3706H42.1094C42.445 10.3706 42.718 10.3158 42.9287 10.2065C43.1394 10.0934 43.294 9.93775 43.3916 9.73877C43.4892 9.53973 43.5381 9.31472 43.5381 9.06494C43.538 8.81142 43.4891 8.57537 43.3916 8.35693C43.294 8.13838 43.1395 7.96228 42.9287 7.82959C42.718 7.69705 42.4448 7.63135 42.1094 7.63135H40.5459V10.3706ZM25.7354 10.3706H27.2979C27.6335 10.3706 27.9074 10.3158 28.1182 10.2065C28.3286 10.0934 28.4826 9.93755 28.5801 9.73877C28.6776 9.53973 28.7266 9.31472 28.7266 9.06494C28.7265 8.81139 28.6776 8.57539 28.5801 8.35693C28.4825 8.13843 28.3289 7.96227 28.1182 7.82959C27.9074 7.6969 27.6335 7.63135 27.2979 7.63135H25.7354V10.3706Z" fill="white"/>
</svg>
